<?xml version="1.0" encoding="utf-8"?>
<!-- Generator: Adobe Illustrator 15.1.0, SVG Export Plug-In . SVG Version: 6.00 Build 0)  -->
<!DOCTYPE svg PUBLIC "-//W3C//DTD SVG 1.1//EN" "http://www.w3.org/Graphics/SVG/1.1/DTD/svg11.dtd">
<svg version="1.1" id="Layer_1" xmlns="http://www.w3.org/2000/svg" xmlns:xlink="http://www.w3.org/1999/xlink" x="0px" y="0px"
	 width="125px" height="122.5px" viewBox="0 0 125 122.5" enable-background="new 0 0 125 122.5" xml:space="preserve">
<path fill-rule="evenodd" clip-rule="evenodd" fill="#181616" d="M62.496,2.731C29.366,2.731,2.5,29.594,2.5,62.735
	c0,26.506,17.19,48.995,41.035,56.931c3,0.55,4.095-1.303,4.095-2.893c0-1.425-0.052-5.198-0.081-10.205
	c-16.689,3.626-20.212-8.042-20.212-8.042c-2.728-6.933-6.661-8.777-6.661-8.777c-5.447-3.723,0.412-3.647,0.412-3.647
	c6.021,0.425,9.19,6.183,9.19,6.183c5.352,9.17,14.043,6.521,17.461,4.986c0.546-3.878,2.096-6.521,3.81-8.021
	c-13.323-1.515-27.33-6.661-27.33-29.654c0-6.55,2.339-11.906,6.177-16.1c-0.617-1.519-2.677-7.619,0.588-15.879
	c0,0,5.037-1.613,16.499,6.151c4.786-1.331,9.919-1.996,15.021-2.02c5.096,0.023,10.229,0.688,15.022,2.02
	c11.454-7.764,16.482-6.151,16.482-6.151c3.272,8.261,1.216,14.361,0.598,15.879c3.845,4.194,6.165,9.55,6.165,16.1
	c0,23.049-14.028,28.122-27.396,29.607c2.158,1.853,4.075,5.514,4.075,11.111c0,8.021-0.075,14.493-0.075,16.46
	c0,1.604,1.082,3.472,4.129,2.885c23.82-7.949,40.995-30.424,40.995-56.923C122.5,29.594,95.635,2.731,62.496,2.731z"/>
</svg>
