<?xml version="1.0" encoding="utf-8"?>
<!-- Generator: Adobe Illustrator 15.1.0, SVG Export Plug-In . SVG Version: 6.00 Build 0)  -->
<!DOCTYPE svg PUBLIC "-//W3C//DTD SVG 1.1//EN" "http://www.w3.org/Graphics/SVG/1.1/DTD/svg11.dtd">
<svg version="1.1" id="Layer_1" xmlns="http://www.w3.org/2000/svg" xmlns:xlink="http://www.w3.org/1999/xlink" x="0px" y="0px"
	 width="150px" height="150px" viewBox="0 0 150 150" enable-background="new 0 0 150 150" xml:space="preserve">
<g id="XMLID_2_">
	<g>
		<path d="M132.524,33.222c-0.015,0.101-0.311,0.14,0,0.15c6.546-0.81,12.171-2.541,17.279-4.788c0,0.05,0,0.1,0,0.149
			c-0.024,0-0.05,0-0.074,0c-3.845,5.725-8.645,10.877-14.14,15.035c-0.339,0.259-0.835,0.41-1.045,0.823
			c0.5,14.772-2.403,26.674-6.658,37.103c-6.3,15.44-15.937,27.981-28.352,37.327c-10.255,7.72-23.023,13.666-38.748,15.857
			c-1.61,0.225-3.248,0.388-4.937,0.524c-1.674,0.136-3.568,0.284-5.237,0.374c-2.169,0-4.337,0-6.507,0
			c-18.345-0.88-32.132-6.318-43.911-13.765c0-0.023,0-0.05,0-0.074c9.431,1.25,18.77-0.15,26.033-2.394
			c7.433-2.296,13.777-6.006,19.149-10.1c0.114,0,0.246-0.203,0-0.148c-11.564-0.681-19.213-5.808-24.311-13.091
			c-1.704-2.433-3.234-5.121-4.04-8.229c4.216,0.875,9.739,0.572,13.539-0.448c-0.108-0.273-0.463-0.171-0.672-0.225
			c-6.928-1.761-12.454-5.362-16.458-10.175c-4.098-4.924-7.269-11.277-7.255-20.195c3.797,2.038,8.048,3.621,13.689,3.814
			c-5.377-3.805-10.091-9.49-12.27-16.98c-1.157-3.984-1.464-8.729-0.821-13.09c0.617-4.193,2.06-7.868,3.813-10.846
			c7.234,8.632,15.763,16.057,26.033,21.617c10.24,5.546,22.313,9.585,37.178,10.398c-2.464-10.762,1.344-20.236,5.983-26.106
			c4.933-6.238,12.083-10.593,22.067-11.519c1.271,0,2.545,0,3.814,0c8.167,0.622,13.925,3.744,18.701,7.929
			c0.514,0.449,1.558,1.657,2.021,1.719c0.226,0.032,0.928-0.187,1.421-0.298c6.266-1.42,11.888-3.807,16.83-6.583
			c0.329-0.185,0.675-0.389,1.048-0.448C143.158,23.958,138.685,29.434,132.524,33.222z"/>
	</g>
	<g>
	</g>
</g>
</svg>
